{
    "asset" : {
        "generator" : "Khronos glTF Blender I/O v1.7.33",
        "version" : "2.0"
    },
    "scene" : 0,
    "scenes" : [
        {
            "name" : "Scene",
            "nodes" : [
                0,
                1
            ]
        }
    ],
    "nodes" : [
        {
            "mesh" : 0,
            "name" : "Rocket",
            "rotation" : [
                0.8660253882408142,
                0,
                0,
                0.4999999701976776
            ],
            "translation" : [
                0.11435848474502563,
                -0.02566426247358322,
                0.04445178806781769
            ]
        },
        {
            "mesh" : 1,
            "name" : "Rocket.001",
            "rotation" : [
                0.8660253882408142,
                0,
                0,
                0.4999999701976776
            ],
            "translation" : [
                0.11435848474502563,
                -0.02566426247358322,
                0.04445178806781769
            ]
        }
    ],
    "materials" : [
        {
            "doubleSided" : true,
            "emissiveFactor" : [
                1,
                1,
                1
            ],
            "emissiveTexture" : {
                "index" : 0
            },
            "name" : "Rocket bake preview",
            "normalTexture" : {
                "index" : 1
            },
            "pbrMetallicRoughness" : {
                "baseColorTexture" : {
                    "index" : 2
                },
                "metallicRoughnessTexture" : {
                    "index" : 3
                }
            }
        }
    ],
    "meshes" : [
        {
            "name" : "Cube.008",
            "primitives" : [
                {
                    "attributes" : {
                        "POSITION" : 0,
                        "NORMAL" : 1,
                        "TANGENT" : 2,
                        "TEXCOORD_0" : 3
                    },
                    "indices" : 4,
                    "material" : 0
                }
            ]
        },
        {
            "name" : "Cube.014",
            "primitives" : [
                {
                    "attributes" : {
                        "POSITION" : 5,
                        "NORMAL" : 6,
                        "TANGENT" : 7,
                        "TEXCOORD_0" : 8
                    },
                    "indices" : 9,
                    "material" : 0
                }
            ]
        }
    ],
    "textures" : [
        {
            "sampler" : 0,
            "source" : 0
        },
        {
            "sampler" : 0,
            "source" : 1
        },
        {
            "sampler" : 0,
            "source" : 2
        },
        {
            "sampler" : 0,
            "source" : 3
        }
    ],
    "images" : [
        {
            "bufferView" : 5,
            "mimeType" : "image/png",
            "name" : "EMIT_Rocket"
        },
        {
            "bufferView" : 6,
            "mimeType" : "image/png",
            "name" : "NORMAL_Rocket"
        },
        {
            "bufferView" : 7,
            "mimeType" : "image/png",
            "name" : "BASE COLOR_Rocket"
        },
        {
            "bufferView" : 8,
            "mimeType" : "image/png",
            "name" : "METALLIC_Rocket-ROUGHNESS_Rocket"
        }
    ],
    "accessors" : [
        {
            "bufferView" : 0,
            "componentType" : 5126,
            "count" : 175,
            "max" : [
                0.06041625142097473,
                -0.008624248206615448,
                0.042704254388809204
            ],
            "min" : [
                -0.32803866267204285,
                -0.09403276443481445,
                -0.0427042581140995
            ],
            "type" : "VEC3"
        },
        {
            "bufferView" : 1,
            "componentType" : 5126,
            "count" : 175,
            "type" : "VEC3"
        },
        {
            "bufferView" : 2,
            "componentType" : 5126,
            "count" : 175,
            "type" : "VEC4"
        },
        {
            "bufferView" : 3,
            "componentType" : 5126,
            "count" : 175,
            "type" : "VEC2"
        },
        {
            "bufferView" : 4,
            "componentType" : 5123,
            "count" : 618,
            "type" : "SCALAR"
        },
        {
            "bufferView" : 9,
            "componentType" : 5126,
            "count" : 48,
            "max" : [
                0.04412171617150307,
                -0.007967944256961346,
                0.038407258689403534
            ],
            "min" : [
                -0.05997876077890396,
                -0.07449129223823547,
                -0.038407277315855026
            ],
            "type" : "VEC3"
        },
        {
            "bufferView" : 10,
            "componentType" : 5126,
            "count" : 48,
            "type" : "VEC3"
        },
        {
            "bufferView" : 11,
            "componentType" : 5126,
            "count" : 48,
            "type" : "VEC4"
        },
        {
            "bufferView" : 12,
            "componentType" : 5126,
            "count" : 48,
            "type" : "VEC2"
        },
        {
            "bufferView" : 13,
            "componentType" : 5123,
            "count" : 90,
            "type" : "SCALAR"
        }
    ],
    "bufferViews" : [
        {
            "buffer" : 0,
            "byteLength" : 2100,
            "byteOffset" : 0
        },
        {
            "buffer" : 0,
            "byteLength" : 2100,
            "byteOffset" : 2100
        },
        {
            "buffer" : 0,
            "byteLength" : 2800,
            "byteOffset" : 4200
        },
        {
            "buffer" : 0,
            "byteLength" : 1400,
            "byteOffset" : 7000
        },
        {
            "buffer" : 0,
            "byteLength" : 1236,
            "byteOffset" : 8400
        },
        {
            "buffer" : 0,
            "byteLength" : 13104,
            "byteOffset" : 9636
        },
        {
            "buffer" : 0,
            "byteLength" : 141294,
            "byteOffset" : 22740
        },
        {
            "buffer" : 0,
            "byteLength" : 18310,
            "byteOffset" : 164036
        },
        {
            "buffer" : 0,
            "byteLength" : 14875,
            "byteOffset" : 182348
        },
        {
            "buffer" : 0,
            "byteLength" : 576,
            "byteOffset" : 197224
        },
        {
            "buffer" : 0,
            "byteLength" : 576,
            "byteOffset" : 197800
        },
        {
            "buffer" : 0,
            "byteLength" : 768,
            "byteOffset" : 198376
        },
        {
            "buffer" : 0,
            "byteLength" : 384,
            "byteOffset" : 199144
        },
        {
            "buffer" : 0,
            "byteLength" : 180,
            "byteOffset" : 199528
        }
    ],
    "samplers" : [
        {
            "magFilter" : 9729,
            "minFilter" : 9987
        }
    ],
    "buffers" : [
        {
            "byteLength" : 199708,
            "uri" : "data:application/octet-stream;base64,"
        }
    ]
}
