{
    "asset" : {
        "generator" : "Khronos glTF Blender I/O v3.2.43",
        "version" : "2.0"
    },
    "scene" : 0,
    "scenes" : [
        {
            "name" : "Scene",
            "nodes" : [
                0,
                1,
                8
            ]
        }
    ],
    "nodes" : [
        {
            "name" : "Muzzle",
            "rotation" : [
                0,
                0,
                0.7071066498756409,
                0.70710688829422
            ],
            "translation" : [
                -0.5597422122955322,
                0.1263817995786667,
                -8.516779053024948e-05
            ]
        },
        {
            "name" : "Ejector",
            "rotation" : [
                -0.698413610458374,
                -0.5411622524261475,
                0.11736089736223221,
                0.4534185826778412
            ],
            "translation" : [
                -0.38340574502944946,
                0.13484051823616028,
                -0.07875169068574905
            ]
        },
        {
            "mesh" : 0,
            "name" : "Cylinder.001",
            "translation" : [
                -0.12620384991168976,
                -0.14407199621200562,
                0.11772962659597397
            ]
        },
        {
            "children" : [
                2
            ],
            "mesh" : 1,
            "name" : "Cylinder",
            "translation" : [
                -0.2911301851272583,
                0.1458960920572281,
                -0.00024035456590354443
            ]
        },
        {
            "mesh" : 2,
            "name" : "Static",
            "translation" : [
                -0.14905059337615967,
                0.03694068640470505,
                -0.0016172571340575814
            ]
        },
        {
            "name" : "Slide",
            "rotation" : [
                0.8705887794494629,
                9.768176312263677e-08,
                -0.4920113980770111,
                1.628029480116311e-07
            ],
            "translation" : [
                0.07356933504343033,
                0.08970530331134796,
                -0.12217780202627182
            ]
        },
        {
            "name" : "Clip",
            "rotation" : [
                -0.702934980392456,
                -0.5136216282844543,
                0.3972622752189636,
                0.2902723252773285
            ],
            "translation" : [
                0.004159640986472368,
                0.20746897161006927,
                -0.007073163986206055
            ]
        },
        {
            "children" : [
                5,
                6
            ],
            "name" : "Root",
            "rotation" : [
                0.6155992150306702,
                0.6155991554260254,
                -0.34790468215942383,
                0.34790459275245667
            ],
            "translation" : [
                -0.25963184237480164,
                -0.014342987909913063,
                -1.928128767758608e-09
            ]
        },
        {
            "children" : [
                3,
                4,
                7
            ],
            "name" : "Handgun_Armature",
            "translation" : [
                0.044230252504348755,
                -0.019410254433751106,
                -8.51836521178484e-05
            ]
        }
    ],
    "materials" : [
        {
            "doubleSided" : true,
            "name" : "Material.001",
            "pbrMetallicRoughness" : {
                "baseColorFactor" : [
                    0.02037855051457882,
                    0.02037855051457882,
                    0.02037855051457882,
                    1
                ],
                "metallicFactor" : 0,
                "roughnessFactor" : 0.4527558982372284
            }
        },
        {
            "doubleSided" : true,
            "name" : "Material.002",
            "pbrMetallicRoughness" : {
                "baseColorFactor" : [
                    0.5277175307273865,
                    0.5277175307273865,
                    0.5277175307273865,
                    1
                ],
                "roughnessFactor" : 0.29527556896209717
            }
        },
        {
            "doubleSided" : true,
            "name" : "HandgunMetal",
            "pbrMetallicRoughness" : {
                "baseColorFactor" : [
                    0.800000011920929,
                    0.800000011920929,
                    0.800000011920929,
                    1
                ],
                "roughnessFactor" : 0.23758864402770996
            }
        },
        {
            "doubleSided" : true,
            "name" : "HandgunPlastic",
            "pbrMetallicRoughness" : {
                "baseColorFactor" : [
                    0.03184327855706215,
                    0.03184327855706215,
                    0.03184327855706215,
                    1
                ],
                "metallicFactor" : 0,
                "roughnessFactor" : 0.5
            }
        }
    ],
    "meshes" : [
        {
            "name" : "Cylinder.001",
            "primitives" : [
                {
                    "attributes" : {
                        "POSITION" : 0,
                        "NORMAL" : 1,
                        "TEXCOORD_0" : 2
                    },
                    "indices" : 3,
                    "material" : 0
                },
                {
                    "attributes" : {
                        "POSITION" : 4,
                        "NORMAL" : 5,
                        "TEXCOORD_0" : 6
                    },
                    "indices" : 7,
                    "material" : 1
                }
            ]
        },
        {
            "name" : "Cylinder",
            "primitives" : [
                {
                    "attributes" : {
                        "POSITION" : 8,
                        "NORMAL" : 9,
                        "TEXCOORD_0" : 10
                    },
                    "indices" : 11,
                    "material" : 0
                },
                {
                    "attributes" : {
                        "POSITION" : 12,
                        "NORMAL" : 13,
                        "TEXCOORD_0" : 14
                    },
                    "indices" : 15,
                    "material" : 1
                },
                {
                    "attributes" : {
                        "POSITION" : 16,
                        "NORMAL" : 17,
                        "TEXCOORD_0" : 18
                    },
                    "indices" : 19,
                    "material" : 1
                }
            ]
        },
        {
            "name" : "Cube.001",
            "primitives" : [
                {
                    "attributes" : {
                        "POSITION" : 20,
                        "NORMAL" : 21,
                        "TEXCOORD_0" : 22,
                        "COLOR_0" : 23
                    },
                    "indices" : 24,
                    "material" : 2
                },
                {
                    "attributes" : {
                        "POSITION" : 25,
                        "NORMAL" : 26,
                        "TEXCOORD_0" : 27,
                        "COLOR_0" : 28
                    },
                    "indices" : 29,
                    "material" : 3
                }
            ]
        }
    ],
    "accessors" : [
        {
            "bufferView" : 0,
            "componentType" : 5126,
            "count" : 82,
            "max" : [
                0.02129289321601391,
                0.10166697204113007,
                0.02129289321601391
            ],
            "min" : [
                -0.02129289321601391,
                -0.1115080863237381,
                -0.02129289321601391
            ],
            "type" : "VEC3"
        },
        {
            "bufferView" : 1,
            "componentType" : 5126,
            "count" : 82,
            "type" : "VEC3"
        },
        {
            "bufferView" : 2,
            "componentType" : 5126,
            "count" : 82,
            "type" : "VEC2"
        },
        {
            "bufferView" : 3,
            "componentType" : 5123,
            "count" : 234,
            "type" : "SCALAR"
        },
        {
            "bufferView" : 4,
            "componentType" : 5126,
            "count" : 165,
            "max" : [
                0.012796829454600811,
                0.16451327502727509,
                0.012796832248568535
            ],
            "min" : [
                -0.012796837836503983,
                0.10166697204113007,
                -0.04996608570218086
            ],
            "type" : "VEC3"
        },
        {
            "bufferView" : 5,
            "componentType" : 5126,
            "count" : 165,
            "type" : "VEC3"
        },
        {
            "bufferView" : 6,
            "componentType" : 5126,
            "count" : 165,
            "type" : "VEC2"
        },
        {
            "bufferView" : 7,
            "componentType" : 5123,
            "count" : 714,
            "type" : "SCALAR"
        },
        {
            "bufferView" : 8,
            "componentType" : 5126,
            "count" : 918,
            "max" : [
                0.3682710528373718,
                0.0870838463306427,
                0.08708375692367554
            ],
            "min" : [
                -0.3682710826396942,
                -0.08708387613296509,
                -0.08708375692367554
            ],
            "type" : "VEC3"
        },
        {
            "bufferView" : 9,
            "componentType" : 5126,
            "count" : 918,
            "type" : "VEC3"
        },
        {
            "bufferView" : 10,
            "componentType" : 5126,
            "count" : 918,
            "type" : "VEC2"
        },
        {
            "bufferView" : 11,
            "componentType" : 5123,
            "count" : 2280,
            "type" : "SCALAR"
        },
        {
            "bufferView" : 12,
            "componentType" : 5126,
            "count" : 1712,
            "max" : [
                0.35334134101867676,
                0.07937967032194138,
                0.07937979698181152
            ],
            "min" : [
                -0.36808162927627563,
                -0.07937990874052048,
                -0.07989993691444397
            ],
            "type" : "VEC3"
        },
        {
            "bufferView" : 13,
            "componentType" : 5126,
            "count" : 1712,
            "type" : "VEC3"
        },
        {
            "bufferView" : 14,
            "componentType" : 5126,
            "count" : 1712,
            "type" : "VEC2"
        },
        {
            "bufferView" : 15,
            "componentType" : 5123,
            "count" : 4026,
            "type" : "SCALAR"
        },
        {
            "bufferView" : 16,
            "componentType" : 5126,
            "count" : 551,
            "max" : [
                0.3678908348083496,
                0.08669620007276535,
                0.08637384325265884
            ],
            "min" : [
                0.10062582790851593,
                -0.012966612353920937,
                -0.08637375384569168
            ],
            "type" : "VEC3"
        },
        {
            "bufferView" : 17,
            "componentType" : 5126,
            "count" : 551,
            "type" : "VEC3"
        },
        {
            "bufferView" : 18,
            "componentType" : 5126,
            "count" : 551,
            "type" : "VEC2"
        },
        {
            "bufferView" : 19,
            "componentType" : 5123,
            "count" : 1338,
            "type" : "SCALAR"
        },
        {
            "bufferView" : 20,
            "componentType" : 5126,
            "count" : 566,
            "max" : [
                0.016657084226608276,
                0.10066709667444229,
                0.018602097406983376
            ],
            "min" : [
                -0.22411492466926575,
                0.062269799411296844,
                -0.02349412813782692
            ],
            "type" : "VEC3"
        },
        {
            "bufferView" : 21,
            "componentType" : 5126,
            "count" : 566,
            "type" : "VEC3"
        },
        {
            "bufferView" : 22,
            "componentType" : 5126,
            "count" : 566,
            "type" : "VEC2"
        },
        {
            "bufferView" : 23,
            "componentType" : 5123,
            "count" : 566,
            "normalized" : true,
            "type" : "VEC4"
        },
        {
            "bufferView" : 24,
            "componentType" : 5123,
            "count" : 1818,
            "type" : "SCALAR"
        },
        {
            "bufferView" : 25,
            "componentType" : 5126,
            "count" : 3363,
            "max" : [
                0.1729287952184677,
                0.10665953904390335,
                0.029708590358495712
            ],
            "min" : [
                -0.22028318047523499,
                -0.1240287572145462,
                -0.026384511962532997
            ],
            "type" : "VEC3"
        },
        {
            "bufferView" : 26,
            "componentType" : 5126,
            "count" : 3363,
            "type" : "VEC3"
        },
        {
            "bufferView" : 27,
            "componentType" : 5126,
            "count" : 3363,
            "type" : "VEC2"
        },
        {
            "bufferView" : 28,
            "componentType" : 5123,
            "count" : 3363,
            "normalized" : true,
            "type" : "VEC4"
        },
        {
            "bufferView" : 29,
            "componentType" : 5123,
            "count" : 14220,
            "type" : "SCALAR"
        }
    ],
    "bufferViews" : [
        {
            "buffer" : 0,
            "byteLength" : 984,
            "byteOffset" : 0
        },
        {
            "buffer" : 0,
            "byteLength" : 984,
            "byteOffset" : 984
        },
        {
            "buffer" : 0,
            "byteLength" : 656,
            "byteOffset" : 1968
        },
        {
            "buffer" : 0,
            "byteLength" : 468,
            "byteOffset" : 2624
        },
        {
            "buffer" : 0,
            "byteLength" : 1980,
            "byteOffset" : 3092
        },
        {
            "buffer" : 0,
            "byteLength" : 1980,
            "byteOffset" : 5072
        },
        {
            "buffer" : 0,
            "byteLength" : 1320,
            "byteOffset" : 7052
        },
        {
            "buffer" : 0,
            "byteLength" : 1428,
            "byteOffset" : 8372
        },
        {
            "buffer" : 0,
            "byteLength" : 11016,
            "byteOffset" : 9800
        },
        {
            "buffer" : 0,
            "byteLength" : 11016,
            "byteOffset" : 20816
        },
        {
            "buffer" : 0,
            "byteLength" : 7344,
            "byteOffset" : 31832
        },
        {
            "buffer" : 0,
            "byteLength" : 4560,
            "byteOffset" : 39176
        },
        {
            "buffer" : 0,
            "byteLength" : 20544,
            "byteOffset" : 43736
        },
        {
            "buffer" : 0,
            "byteLength" : 20544,
            "byteOffset" : 64280
        },
        {
            "buffer" : 0,
            "byteLength" : 13696,
            "byteOffset" : 84824
        },
        {
            "buffer" : 0,
            "byteLength" : 8052,
            "byteOffset" : 98520
        },
        {
            "buffer" : 0,
            "byteLength" : 6612,
            "byteOffset" : 106572
        },
        {
            "buffer" : 0,
            "byteLength" : 6612,
            "byteOffset" : 113184
        },
        {
            "buffer" : 0,
            "byteLength" : 4408,
            "byteOffset" : 119796
        },
        {
            "buffer" : 0,
            "byteLength" : 2676,
            "byteOffset" : 124204
        },
        {
            "buffer" : 0,
            "byteLength" : 6792,
            "byteOffset" : 126880
        },
        {
            "buffer" : 0,
            "byteLength" : 6792,
            "byteOffset" : 133672
        },
        {
            "buffer" : 0,
            "byteLength" : 4528,
            "byteOffset" : 140464
        },
        {
            "buffer" : 0,
            "byteLength" : 4528,
            "byteOffset" : 144992
        },
        {
            "buffer" : 0,
            "byteLength" : 3636,
            "byteOffset" : 149520
        },
        {
            "buffer" : 0,
            "byteLength" : 40356,
            "byteOffset" : 153156
        },
        {
            "buffer" : 0,
            "byteLength" : 40356,
            "byteOffset" : 193512
        },
        {
            "buffer" : 0,
            "byteLength" : 26904,
            "byteOffset" : 233868
        },
        {
            "buffer" : 0,
            "byteLength" : 26904,
            "byteOffset" : 260772
        },
        {
            "buffer" : 0,
            "byteLength" : 28440,
            "byteOffset" : 287676
        }
    ],
    "buffers" : [
        {
            "byteLength" : 316116,
            "uri" : "data:application/octet-stream;base64,"
        }
    ]
}
