{
    "asset" : {
        "generator" : "Khronos glTF Blender I/O v3.4.50",
        "version" : "2.0"
    },
    "scene" : 0,
    "scenes" : [
        {
            "name" : "Scene",
            "nodes" : [
                0
            ]
        }
    ],
    "nodes" : [
        {
            "mesh" : 0,
            "name" : "Sphere.005",
            "translation" : [
                0.1261327713727951,
                0.03167569637298584,
                0.022354908287525177
            ]
        }
    ],
    "meshes" : [
        {
            "name" : "Sphere.005",
            "primitives" : [
                {
                    "attributes" : {
                        "POSITION" : 0,
                        "TEXCOORD_0" : 1,
                        "NORMAL" : 2,
                        "TANGENT" : 3
                    },
                    "indices" : 4
                }
            ]
        }
    ],
    "accessors" : [
        {
            "bufferView" : 0,
            "componentType" : 5126,
            "count" : 969,
            "max" : [
                2.292185068130493,
                1.4485530853271484,
                1.3534955978393555
            ],
            "min" : [
                -2.147249221801758,
                -1.037599802017212,
                -1.313506007194519
            ],
            "type" : "VEC3"
        },
        {
            "bufferView" : 1,
            "componentType" : 5126,
            "count" : 969,
            "type" : "VEC2"
        },
        {
            "bufferView" : 2,
            "componentType" : 5126,
            "count" : 969,
            "type" : "VEC3"
        },
        {
            "bufferView" : 3,
            "componentType" : 5126,
            "count" : 969,
            "type" : "VEC4"
        },
        {
            "bufferView" : 4,
            "componentType" : 5123,
            "count" : 4830,
            "type" : "SCALAR"
        }
    ],
    "bufferViews" : [
        {
            "buffer" : 0,
            "byteLength" : 11628,
            "byteOffset" : 0,
            "target" : 34962
        },
        {
            "buffer" : 0,
            "byteLength" : 7752,
            "byteOffset" : 11628,
            "target" : 34962
        },
        {
            "buffer" : 0,
            "byteLength" : 11628,
            "byteOffset" : 19380,
            "target" : 34962
        },
        {
            "buffer" : 0,
            "byteLength" : 15504,
            "byteOffset" : 31008,
            "target" : 34962
        },
        {
            "buffer" : 0,
            "byteLength" : 9660,
            "byteOffset" : 46512,
            "target" : 34963
        }
    ],
    "buffers" : [
        {
            "byteLength" : 56172,
            "uri" : "data:application/octet-stream;base64,"
        }
    ]
}
