{
    "asset" : {
        "generator" : "Khronos glTF Blender I/O v1.8.19",
        "version" : "2.0"
    },
    "scene" : 0,
    "scenes" : [
        {
            "name" : "Scene",
            "nodes" : [
                0,
                1,
                2,
                3
            ]
        }
    ],
    "nodes" : [
        {
            "mesh" : 0,
            "name" : "Box",
            "rotation" : [
                0.7071068286895752,
                0,
                0,
                0.7071068286895752
            ],
            "scale" : [
                4,
                4,
                4
            ],
            "translation" : [
                -0.29698246717453003,
                0.0823320597410202,
                0
            ]
        },
        {
            "mesh" : 1,
            "name" : "Cylinder.006",
            "rotation" : [
                0.7071068286895752,
                0,
                0,
                0.7071068286895752
            ],
            "scale" : [
                4,
                4,
                4
            ],
            "translation" : [
                -0.29698246717453003,
                0.0823320597410202,
                0
            ]
        },
        {
            "mesh" : 2,
            "name" : "Handle",
            "rotation" : [
                0.7071068286895752,
                0,
                0,
                0.7071068286895752
            ],
            "scale" : [
                4,
                4,
                4
            ],
            "translation" : [
                -0.29698246717453003,
                0.0823320597410202,
                0
            ]
        },
        {
            "mesh" : 3,
            "name" : "Cylinder.011",
            "rotation" : [
                0.7071068286895752,
                0,
                0,
                0.7071068286895752
            ],
            "scale" : [
                4,
                4,
                4
            ],
            "translation" : [
                -0.29698246717453003,
                0.0823320597410202,
                0
            ]
        }
    ],
    "materials" : [
        {
            "doubleSided" : true,
            "emissiveFactor" : [
                1,
                1,
                1
            ],
            "emissiveTexture" : {
                "index" : 0
            },
            "name" : "HealthPack",
            "normalTexture" : {
                "index" : 1
            },
            "pbrMetallicRoughness" : {
                "baseColorTexture" : {
                    "index" : 2
                },
                "metallicRoughnessTexture" : {
                    "index" : 3
                }
            }
        }
    ],
    "meshes" : [
        {
            "name" : "Cylinder.017",
            "primitives" : [
                {
                    "attributes" : {
                        "POSITION" : 0,
                        "NORMAL" : 1,
                        "TEXCOORD_0" : 2
                    },
                    "indices" : 3,
                    "material" : 0
                }
            ]
        },
        {
            "name" : "Cylinder.035",
            "primitives" : [
                {
                    "attributes" : {
                        "POSITION" : 4,
                        "NORMAL" : 5,
                        "TEXCOORD_0" : 6
                    },
                    "indices" : 7,
                    "material" : 0
                }
            ]
        },
        {
            "name" : "Cylinder.038",
            "primitives" : [
                {
                    "attributes" : {
                        "POSITION" : 8,
                        "NORMAL" : 9,
                        "TEXCOORD_0" : 10
                    },
                    "indices" : 11,
                    "material" : 0
                }
            ]
        },
        {
            "name" : "Cylinder.039",
            "primitives" : [
                {
                    "attributes" : {
                        "POSITION" : 12,
                        "NORMAL" : 13,
                        "TEXCOORD_0" : 14
                    },
                    "indices" : 15,
                    "material" : 0
                }
            ]
        }
    ],
    "textures" : [
        {
            "sampler" : 0,
            "source" : 0
        },
        {
            "sampler" : 0,
            "source" : 1
        },
        {
            "sampler" : 0,
            "source" : 2
        },
        {
            "sampler" : 0,
            "source" : 3
        }
    ],
    "images" : [
        {
            "bufferView" : 4,
            "mimeType" : "image/png",
            "name" : "EMIT_Bake collection"
        },
        {
            "bufferView" : 5,
            "mimeType" : "image/png",
            "name" : "NORMAL_Bake collection"
        },
        {
            "bufferView" : 6,
            "mimeType" : "image/png",
            "name" : "BASE COLOR_Bake collection"
        },
        {
            "bufferView" : 7,
            "mimeType" : "image/png",
            "name" : "METALLIC_Bake collection-ROUGHNESS_Bake collection"
        }
    ],
    "accessors" : [
        {
            "bufferView" : 0,
            "componentType" : 5126,
            "count" : 168,
            "max" : [
                0.21977540850639343,
                0.08780093491077423,
                0.0439448282122612
            ],
            "min" : [
                -0.07128417491912842,
                -0.08780093491077423,
                -0.029416989535093307
            ],
            "type" : "VEC3"
        },
        {
            "bufferView" : 1,
            "componentType" : 5126,
            "count" : 168,
            "type" : "VEC3"
        },
        {
            "bufferView" : 2,
            "componentType" : 5126,
            "count" : 168,
            "type" : "VEC2"
        },
        {
            "bufferView" : 3,
            "componentType" : 5123,
            "count" : 372,
            "type" : "SCALAR"
        },
        {
            "bufferView" : 8,
            "componentType" : 5126,
            "count" : 234,
            "max" : [
                0.179399311542511,
                0.05799224600195885,
                0.030930913984775543
            ],
            "min" : [
                -0.030930913984775543,
                -0.05799224600195885,
                -0.030930913984775543
            ],
            "type" : "VEC3"
        },
        {
            "bufferView" : 9,
            "componentType" : 5126,
            "count" : 234,
            "type" : "VEC3"
        },
        {
            "bufferView" : 10,
            "componentType" : 5126,
            "count" : 234,
            "type" : "VEC2"
        },
        {
            "bufferView" : 11,
            "componentType" : 5123,
            "count" : 648,
            "type" : "SCALAR"
        },
        {
            "bufferView" : 12,
            "componentType" : 5126,
            "count" : 56,
            "max" : [
                0.140035480260849,
                -0.07002498209476471,
                0.014744242653250694
            ],
            "min" : [
                0.008455745875835419,
                -0.10696719586849213,
                -0.0014172033406794071
            ],
            "type" : "VEC3"
        },
        {
            "bufferView" : 13,
            "componentType" : 5126,
            "count" : 56,
            "type" : "VEC3"
        },
        {
            "bufferView" : 14,
            "componentType" : 5126,
            "count" : 56,
            "type" : "VEC2"
        },
        {
            "bufferView" : 15,
            "componentType" : 5123,
            "count" : 120,
            "type" : "SCALAR"
        },
        {
            "bufferView" : 16,
            "componentType" : 5126,
            "count" : 312,
            "max" : [
                0.18214279413223267,
                0.033675044775009155,
                0.03367439657449722
            ],
            "min" : [
                -0.03367439657449722,
                -0.033675044775009155,
                -0.03367439657449722
            ],
            "type" : "VEC3"
        },
        {
            "bufferView" : 17,
            "componentType" : 5126,
            "count" : 312,
            "type" : "VEC3"
        },
        {
            "bufferView" : 18,
            "componentType" : 5126,
            "count" : 312,
            "type" : "VEC2"
        },
        {
            "bufferView" : 19,
            "componentType" : 5123,
            "count" : 864,
            "type" : "SCALAR"
        }
    ],
    "bufferViews" : [
        {
            "buffer" : 0,
            "byteLength" : 2016,
            "byteOffset" : 0
        },
        {
            "buffer" : 0,
            "byteLength" : 2016,
            "byteOffset" : 2016
        },
        {
            "buffer" : 0,
            "byteLength" : 1344,
            "byteOffset" : 4032
        },
        {
            "buffer" : 0,
            "byteLength" : 744,
            "byteOffset" : 5376
        },
        {
            "buffer" : 0,
            "byteLength" : 62316,
            "byteOffset" : 6120
        },
        {
            "buffer" : 0,
            "byteLength" : 423228,
            "byteOffset" : 68436
        },
        {
            "buffer" : 0,
            "byteLength" : 79455,
            "byteOffset" : 491664
        },
        {
            "buffer" : 0,
            "byteLength" : 70207,
            "byteOffset" : 571120
        },
        {
            "buffer" : 0,
            "byteLength" : 2808,
            "byteOffset" : 641328
        },
        {
            "buffer" : 0,
            "byteLength" : 2808,
            "byteOffset" : 644136
        },
        {
            "buffer" : 0,
            "byteLength" : 1872,
            "byteOffset" : 646944
        },
        {
            "buffer" : 0,
            "byteLength" : 1296,
            "byteOffset" : 648816
        },
        {
            "buffer" : 0,
            "byteLength" : 672,
            "byteOffset" : 650112
        },
        {
            "buffer" : 0,
            "byteLength" : 672,
            "byteOffset" : 650784
        },
        {
            "buffer" : 0,
            "byteLength" : 448,
            "byteOffset" : 651456
        },
        {
            "buffer" : 0,
            "byteLength" : 240,
            "byteOffset" : 651904
        },
        {
            "buffer" : 0,
            "byteLength" : 3744,
            "byteOffset" : 652144
        },
        {
            "buffer" : 0,
            "byteLength" : 3744,
            "byteOffset" : 655888
        },
        {
            "buffer" : 0,
            "byteLength" : 2496,
            "byteOffset" : 659632
        },
        {
            "buffer" : 0,
            "byteLength" : 1728,
            "byteOffset" : 662128
        }
    ],
    "samplers" : [
        {
            "magFilter" : 9729,
            "minFilter" : 9987
        }
    ],
    "buffers" : [
        {
            "byteLength" : 663856,
            "uri" : "data:application/octet-stream;base64,"
        }
    ]
}
