{
    "asset" : {
        "generator" : "Khronos glTF Blender I/O v1.7.33",
        "version" : "2.0"
    },
    "scene" : 0,
    "scenes" : [
        {
            "name" : "Scene",
            "nodes" : [
                0,
                1,
                2
            ]
        }
    ],
    "nodes" : [
        {
            "mesh" : 0,
            "name" : "Casing_LOD0"
        },
        {
            "mesh" : 1,
            "name" : "Casing_LOD1"
        },
        {
            "mesh" : 2,
            "name" : "Casing_LOD2"
        }
    ],
    "materials" : [
        {
            "doubleSided" : true,
            "name" : "Casing",
            "pbrMetallicRoughness" : {
                "baseColorFactor" : [
                    0.8000000715255737,
                    0.45338723063468933,
                    0.07792434841394424,
                    1
                ],
                "roughnessFactor" : 0.3590908646583557
            }
        },
        {
            "doubleSided" : true,
            "name" : "Casing_LOD1",
            "normalTexture" : {
                "index" : 0
            },
            "pbrMetallicRoughness" : {
                "baseColorFactor" : [
                    0.8000000715255737,
                    0.45338723063468933,
                    0.07792434841394424,
                    1
                ],
                "roughnessFactor" : 0.3590908646583557
            }
        }
    ],
    "meshes" : [
        {
            "name" : "Cylinder",
            "primitives" : [
                {
                    "attributes" : {
                        "POSITION" : 0,
                        "NORMAL" : 1,
                        "TEXCOORD_0" : 2,
                        "COLOR_0" : 3
                    },
                    "indices" : 4,
                    "material" : 0
                }
            ]
        },
        {
            "name" : "Cylinder.002",
            "primitives" : [
                {
                    "attributes" : {
                        "POSITION" : 5,
                        "NORMAL" : 6,
                        "TANGENT" : 7,
                        "TEXCOORD_0" : 8,
                        "COLOR_0" : 9
                    },
                    "indices" : 10,
                    "material" : 1
                }
            ]
        },
        {
            "name" : "Cylinder.003",
            "primitives" : [
                {
                    "attributes" : {
                        "POSITION" : 11,
                        "NORMAL" : 12,
                        "TEXCOORD_0" : 13,
                        "COLOR_0" : 14
                    },
                    "indices" : 15,
                    "material" : 1
                }
            ]
        }
    ],
    "textures" : [
        {
            "sampler" : 0,
            "source" : 0
        }
    ],
    "images" : [
        {
            "bufferView" : 11,
            "mimeType" : "image/png",
            "name" : "Casing_LOD1_NOR"
        }
    ],
    "accessors" : [
        {
            "bufferView" : 0,
            "componentType" : 5126,
            "count" : 3485,
            "max" : [
                0.027581216767430305,
                0.011318045668303967,
                0.011317865923047066
            ],
            "min" : [
                -0.027581388130784035,
                -0.01131832879036665,
                -0.011318502947688103
            ],
            "type" : "VEC3"
        },
        {
            "bufferView" : 1,
            "componentType" : 5126,
            "count" : 3485,
            "type" : "VEC3"
        },
        {
            "bufferView" : 2,
            "componentType" : 5126,
            "count" : 3485,
            "type" : "VEC2"
        },
        {
            "bufferView" : 3,
            "componentType" : 5123,
            "count" : 3485,
            "normalized" : true,
            "type" : "VEC4"
        },
        {
            "bufferView" : 4,
            "componentType" : 5123,
            "count" : 9204,
            "type" : "SCALAR"
        },
        {
            "bufferView" : 5,
            "componentType" : 5126,
            "count" : 65,
            "max" : [
                0.027648750692605972,
                0.011421548202633858,
                0.011421546339988708
            ],
            "min" : [
                -0.027648750692605972,
                -0.011421547271311283,
                -0.011421546339988708
            ],
            "type" : "VEC3"
        },
        {
            "bufferView" : 6,
            "componentType" : 5126,
            "count" : 65,
            "type" : "VEC3"
        },
        {
            "bufferView" : 7,
            "componentType" : 5126,
            "count" : 65,
            "type" : "VEC4"
        },
        {
            "bufferView" : 8,
            "componentType" : 5126,
            "count" : 65,
            "type" : "VEC2"
        },
        {
            "bufferView" : 9,
            "componentType" : 5123,
            "count" : 65,
            "normalized" : true,
            "type" : "VEC4"
        },
        {
            "bufferView" : 10,
            "componentType" : 5123,
            "count" : 216,
            "type" : "SCALAR"
        },
        {
            "bufferView" : 12,
            "componentType" : 5126,
            "count" : 26,
            "max" : [
                0.027648750692605972,
                0.011421548202633858,
                0.009891348890960217
            ],
            "min" : [
                -0.027648750692605972,
                -0.01142154447734356,
                -0.009891348890960217
            ],
            "type" : "VEC3"
        },
        {
            "bufferView" : 13,
            "componentType" : 5126,
            "count" : 26,
            "type" : "VEC3"
        },
        {
            "bufferView" : 14,
            "componentType" : 5126,
            "count" : 26,
            "type" : "VEC2"
        },
        {
            "bufferView" : 15,
            "componentType" : 5123,
            "count" : 26,
            "normalized" : true,
            "type" : "VEC4"
        },
        {
            "bufferView" : 16,
            "componentType" : 5123,
            "count" : 60,
            "type" : "SCALAR"
        }
    ],
    "bufferViews" : [
        {
            "buffer" : 0,
            "byteLength" : 41820,
            "byteOffset" : 0
        },
        {
            "buffer" : 0,
            "byteLength" : 41820,
            "byteOffset" : 41820
        },
        {
            "buffer" : 0,
            "byteLength" : 27880,
            "byteOffset" : 83640
        },
        {
            "buffer" : 0,
            "byteLength" : 27880,
            "byteOffset" : 111520
        },
        {
            "buffer" : 0,
            "byteLength" : 18408,
            "byteOffset" : 139400
        },
        {
            "buffer" : 0,
            "byteLength" : 780,
            "byteOffset" : 157808
        },
        {
            "buffer" : 0,
            "byteLength" : 780,
            "byteOffset" : 158588
        },
        {
            "buffer" : 0,
            "byteLength" : 1040,
            "byteOffset" : 159368
        },
        {
            "buffer" : 0,
            "byteLength" : 520,
            "byteOffset" : 160408
        },
        {
            "buffer" : 0,
            "byteLength" : 520,
            "byteOffset" : 160928
        },
        {
            "buffer" : 0,
            "byteLength" : 432,
            "byteOffset" : 161448
        },
        {
            "buffer" : 0,
            "byteLength" : 86506,
            "byteOffset" : 161880
        },
        {
            "buffer" : 0,
            "byteLength" : 312,
            "byteOffset" : 248388
        },
        {
            "buffer" : 0,
            "byteLength" : 312,
            "byteOffset" : 248700
        },
        {
            "buffer" : 0,
            "byteLength" : 208,
            "byteOffset" : 249012
        },
        {
            "buffer" : 0,
            "byteLength" : 208,
            "byteOffset" : 249220
        },
        {
            "buffer" : 0,
            "byteLength" : 120,
            "byteOffset" : 249428
        }
    ],
    "samplers" : [
        {
            "magFilter" : 9729,
            "minFilter" : 9987
        }
    ],
    "buffers" : [
        {
            "byteLength" : 249548,
            "uri" : "data:application/octet-stream;base64,"
        }
    ]
}
